<svg xmlns="http://www.w3.org/2000/svg" height="24" width="24"><rect id="backgroundrect" width="100%" height="100%" x="0" y="0" fill="none" stroke="none"/><g class="currentLayer" style=""><title>Layer 1</title><path d="M0 0h24v24H0V0z" fill="none" id="svg_1"/><path d="M12.088495574891567,6 c1.1,0 2,0.9 2,2 s-0.9,2 -2,2 s-2,-0.9 -2,-2 s0.9,-2 2,-2 m0,9 c2.7,0 5.8,1.29 6,2 v1 H6.088495574891567 v-0.99 c0.2,-0.7200000000000001 3.3,-2.01 6,-2.01 m0,-11 C9.878495574891566,4 8.088495574891567,5.79 8.088495574891567,8 s1.79,4 4,4 s4,-1.79 4,-4 s-1.79,-4 -4,-4 zm0,9 c-2.67,0 -8,1.34 -8,4 v3 h16 v-3 c0,-2.66 -5.33,-4 -8,-4 z" id="svg_2" class="selected" fill-opacity="1" fill="#3a3a3a"/></g></svg>