<svg enable-background="new 0 0 24 24" height="512" viewBox="0 0 24 24" width="512" xmlns="http://www.w3.org/2000/svg"><path d="m22.765 9.397c-.08-.24-.288-.414-.538-.453l-6.64-1.015-2.976-6.34c-.222-.474-.999-.474-1.222 0l-2.976 6.341-6.64 1.015c-.25.038-.458.213-.538.453s-.019.505.157.686l4.824 4.945-1.14 6.99c-.042.255.066.512.277.66s.489.164.715.039l5.932-3.279 5.931 3.278c.102.057.214.084.327.084.137 0 .273-.041.389-.123.211-.149.319-.406.277-.66l-1.14-6.99 4.824-4.945c.177-.181.237-.446.157-.686z" fill="#ffc107"/><path d="m5.574 15.362-1.267 7.767c-.046.283.073.568.308.734.234.165.543.183.795.043l6.59-3.642 6.59 3.643c.114.062.239.093.363.093.152 0 .303-.046.432-.137.235-.166.354-.451.308-.734l-1.267-7.767 5.36-5.494c.196-.201.264-.496.175-.762-.089-.267-.32-.46-.598-.503l-7.378-1.127-3.307-7.044c-.247-.526-1.11-.526-1.357 0l-3.306 7.044-7.378 1.127c-.278.043-.509.236-.598.503s-.022.561.174.762zm3.063-6.464c.247-.038.459-.196.565-.422l2.798-5.961 2.798 5.96c.106.226.318.385.565.422l6.331.967-4.605 4.72c-.167.17-.242.41-.204.645l1.08 6.617-5.602-3.096c-.113-.062-.238-.094-.363-.094s-.25.031-.363.094l-5.602 3.096 1.08-6.617c.038-.235-.037-.474-.204-.645l-4.605-4.72z"/></svg>