<svg xmlns="http://www.w3.org/2000/svg" height="24" width="24" style=""><rect id="backgroundrect" width="100%" height="100%" x="0" y="0" fill="none" stroke="none"/><g class="currentLayer" style=""><title>Layer 1</title><path d="M0,0 h24 v24 H0 z" fill="none" id="svg_1" class=""/><path d="M12,2 C6.48,2 2,6.48 2,12 s4.48,10 10,10 s10,-4.48 10,-10 S17.52,2 12,2 zm0,3 c1.6600000000000001,0 3,1.34 3,3 s-1.34,3 -3,3 s-3,-1.34 -3,-3 s1.34,-3 3,-3 zm0,14.2 c-2.5,0 -4.71,-1.28 -6,-3.22 c0.030000000000000006,-1.99 4,-3.08 6,-3.08 c1.99,0 5.97,1.09 6,3.08 c-1.29,1.94 -3.5,3.22 -6,3.22 z" id="svg_2" class="selected" fill-opacity="1" fill="#3a3a3a"/></g></svg>