<svg xmlns="http://www.w3.org/2000/svg" height="24" width="24" style=""><rect id="backgroundrect" width="100%" height="100%" x="0" y="0" fill="none" stroke="none"/><g class="currentLayer" style=""><title>Layer 1</title><path d="M0,0 h24 v24 H0 V0 z" fill="none" id="svg_1" class=""/><path d="M12,2 C6.48,2 2,6.48 2,12 s4.48,10 10,10 s10,-4.48 10,-10 S17.52,2 12,2 zM7.07,18.28 c0.4300000000000001,-0.9 3.05,-1.78 4.93,-1.78 s4.51,0.8800000000000002 4.93,1.78 C15.57,19.36 13.86,20 12,20 s-3.5700000000000003,-0.6400000000000002 -4.93,-1.7200000000000002 zm11.29,-1.45 c-1.4300000000000002,-1.7400000000000002 -4.9,-2.33 -6.36,-2.33 s-4.93,0.5900000000000002 -6.36,2.33 C4.62,15.49 4,13.82 4,12 c0,-4.41 3.59,-8 8,-8 s8,3.59 8,8 c0,1.82 -0.6200000000000002,3.49 -1.6400000000000001,4.83 zM12,6 c-1.94,0 -3.5,1.56 -3.5,3.5 S10.06,13 12,13 s3.5,-1.56 3.5,-3.5 S13.94,6 12,6 zm0,5 c-0.8300000000000002,0 -1.5,-0.6700000000000004 -1.5,-1.5 S11.17,8 12,8 s1.5,0.6700000000000004 1.5,1.5 S12.83,11 12,11 z" id="svg_2" class="" fill="#eb1a1a" fill-opacity="1"/></g></svg>